<?xml version="1.0" encoding="UTF-8" standalone="no"?>
<!-- Created with Inkscape (http://www.inkscape.org/) -->

<svg
   version="1.1"
   id="svg1"
   width="89.599998"
   height="92.160004"
   viewBox="0 0 89.599998 92.160004"
   sodipodi:docname="add.svg"
   inkscape:version="1.4.3 (0d15f75, 2025-12-25)"
   xmlns:inkscape="http://www.inkscape.org/namespaces/inkscape"
   xmlns:sodipodi="http://sodipodi.sourceforge.net/DTD/sodipodi-0.dtd"
   xmlns="http://www.w3.org/2000/svg"
   xmlns:svg="http://www.w3.org/2000/svg">
  <defs
     id="defs1" />
  <sodipodi:namedview
     id="namedview1"
     pagecolor="#ffffff"
     bordercolor="#000000"
     borderopacity="0.25"
     inkscape:showpageshadow="2"
     inkscape:pageopacity="0.0"
     inkscape:pagecheckerboard="0"
     inkscape:deskcolor="#d1d1d1"
     inkscape:zoom="4.9296451"
     inkscape:cx="-23.429679"
     inkscape:cy="66.840512"
     inkscape:window-width="2560"
     inkscape:window-height="1529"
     inkscape:window-x="-8"
     inkscape:window-y="-8"
     inkscape:window-maximized="1"
     inkscape:current-layer="g1" />
  <g
     inkscape:groupmode="layer"
     inkscape:label="Image"
     id="g1">
    <path
       style="fill:#000000"
       d="M 39.751528,91.138449 C 16.012454,88.13591 1.5129827,59.919411 8.7407469,30.790341 19.362728,-12.017978 73.28045,-7.8060351 81.314401,36.459647 c 1.514659,8.34551 1.623088,10.76313 0.531672,11.854546 -2.239479,2.23948 -4.334545,-0.511912 -4.334545,-5.692436 0,-3.532311 -2.645277,-12.882432 -4.982652,-17.611922 C 65.576351,10.941966 51.721939,3.1018654 38.471528,5.7370582 33.893541,6.6475112 31.790533,7.4323932 28.711529,9.3796727 4.5055597,24.688449 6.2141867,71.115393 31.451494,83.830225 c 6.689752,3.370371 15.925115,4.075386 22.220034,1.696248 3.518436,-1.329778 5.994721,-2.610266 8.029559,-4.152087 2.573419,-1.949911 4.610449,-1.462392 4.610431,1.103409 -3.3e-5,4.804003 -15.944835,10.003268 -26.55999,8.660654 z M 69.756576,80.806574 c -1.044175,-0.932296 -1.045138,-0.936018 -1.152683,-4.45449 -0.107635,-3.521415 -0.107635,-3.521415 -4.055196,-3.626925 -5.482143,-0.146526 -5.597169,-0.257118 -5.597169,-5.381422 0,-5.152852 0.281081,-5.44197 5.29751,-5.448989 4.445749,-0.0062 4.218398,0.200205 4.351251,-3.950735 0.152289,-4.758244 0.736144,-5.324365 5.491151,-5.324365 4.684086,0 5.340088,0.705674 5.340088,5.744438 0,3.568438 0,3.568438 3.818825,3.472 5.385788,-0.136008 5.781872,0.228815 5.779585,5.323432 -0.0023,5.206957 -0.178947,5.383803 -5.555344,5.562792 -4.043066,0.1346 -4.043066,0.1346 -4.043066,3.640585 0,4.951184 -0.415565,5.376754 -5.250336,5.376754 -3.281136,0 -3.410005,-0.02718 -4.424616,-0.933075 z m 4.874952,-7.098564 c 0,-5.328926 0.08044,-5.408361 5.476461,-5.408361 4.443539,0 4.443539,0 4.443539,-0.96 0,-0.96 0,-0.96 -3.819168,-0.96 -5.829618,0 -6.100832,-0.259229 -6.100832,-5.831216 0,-5.138413 -1.054624,-4.492683 -1.28,0.783724 -0.21358,5.000247 -0.0507,4.855139 -5.611066,4.998888 -4.308934,0.111397 -4.308934,0.111397 -4.308934,1.04 0,0.928604 0,0.928604 4.440818,0.928604 5.529977,0 5.283227,-0.220469 5.425981,4.848052 0.09819,3.486217 0.15624,3.791948 0.72,3.791948 0.563788,0 0.613201,-0.260412 0.613201,-3.231639 z M 20.193492,71.177501 c -3.641438,-2.127674 -1.845302,-13.452445 2.883607,-18.181355 4.339287,-4.339287 12.215887,-7.021719 14.85578,-5.059242 3.072971,2.284423 7.733547,2.460515 11.684133,0.441465 2.606236,-1.331985 3.138533,-1.396952 6.134636,-0.748726 3.280212,0.709695 4.378934,1.158092 7.83988,3.199519 2.803702,1.653753 3.533936,3.474272 1.979375,4.934706 -1.020867,0.959055 -1.807126,0.874927 -3.646201,-0.390134 -3.889921,-2.675795 -7.919479,-3.820137 -10.025033,-2.84698 -2.415095,1.116223 -3.007475,1.300796 -5.541298,1.726553 -2.941296,0.494225 -6.930336,-0.116483 -9.628909,-1.474152 -1.569025,-0.789386 -1.671136,-0.799909 -3.377934,-0.348111 -8.141702,2.155154 -11.200032,7.27136 -9.726322,16.270928 0.363611,2.220478 -1.53017,3.586592 -3.431714,2.475529 z M 39.442698,46.199002 C 27.888437,43.174045 23.991123,28.310537 32.516709,19.784782 43.783212,8.5180542 62.093265,17.747945 59.890713,33.583707 58.607245,42.811496 49.042663,48.712316 39.442698,46.199002 Z m 9.295135,-5.196168 c 10.816769,-5.020593 7.133201,-21.343187 -4.816579,-21.343187 -4.148354,0 -10.249726,4.066921 -10.249726,6.832042 0,0.219977 -0.172173,0.572132 -0.382608,0.782567 -1.473195,1.473195 0.07445,9.104877 2.242143,11.056387 0.420932,0.378953 1.032762,0.93503 1.359621,1.235727 2.733156,2.514394 8.118068,3.167314 11.847149,1.436464 z"
       id="path1" />
  </g>
</svg>
